<svg width="180" height="63" viewBox="0 0 180 63" fill="none" xmlns="http://www.w3.org/2000/svg">
<rect x="1" y="1" width="178" height="61" rx="9" fill="black"/>
<g clip-path="url(#clip0_1_4888)">
<path d="M19.6801 13.0878C19.1983 13.6676 18.9551 14.4099 19 15.1634V47.8375C18.9548 48.591 19.1981 49.3335 19.6801 49.9131L19.7894 50.0192L38.0318 31.7163V31.2846L19.7894 12.9799L19.6801 13.0878Z" fill="url(#paint0_linear_1_4888)"/>
<path d="M44.1135 37.82L38.0336 31.7154V31.2837L44.1162 25.1809L44.2531 25.2603L51.454 29.3633C53.5112 30.5362 53.5112 32.4557 51.454 33.6287L44.2531 37.7316L44.1135 37.82Z" fill="url(#paint1_linear_1_4888)"/>
<path d="M44.2522 37.7432L38.0292 31.4996L19.6801 49.9131C20.3593 50.6338 21.4794 50.723 22.7418 50.0023L44.2522 37.7432Z" fill="url(#paint2_linear_1_4888)"/>
<path d="M44.2522 25.2603L22.7418 12.9995C21.4794 12.2797 20.3593 12.3689 19.6801 13.0887L38.0318 31.5004L44.2522 25.2603Z" fill="url(#paint3_linear_1_4888)"/>
<path opacity="0.2" d="M44.1153 37.6032L22.7418 49.7873C21.5461 50.4697 20.4775 50.4242 19.7912 49.8034L19.681 49.9131L19.7903 50.021C20.4766 50.6454 21.5452 50.6873 22.7409 50.005L44.2548 37.7424L44.1153 37.6032Z" fill="black"/>
<path opacity="0.12" d="M19.6801 49.6972C19.1981 49.1176 18.9548 48.3752 19 47.6217V47.8384C18.9547 48.5917 19.198 49.3339 19.6801 49.9131L19.7903 49.8034L19.6801 49.6972Z" fill="black"/>
<path opacity="0.12" d="M51.4576 33.4182L44.1153 37.6032L44.2522 37.7406L51.4531 33.6376C51.8783 33.453 52.2462 33.1572 52.5183 32.7811C52.7905 32.4049 52.9568 31.9623 53 31.4996C52.9095 31.9177 52.7229 32.3089 52.4551 32.642C52.1874 32.9751 51.8458 33.2409 51.4576 33.4182Z" fill="black"/>
<path opacity="0.25" d="M22.7418 13.2136L51.4567 29.5827C51.8449 29.7598 52.1866 30.0254 52.4546 30.3583C52.7225 30.6912 52.9093 31.0823 53 31.5004C52.957 31.0387 52.7911 30.597 52.5196 30.2216C52.2481 29.8462 51.8809 29.551 51.4567 29.3669L22.7418 12.9995C20.6829 11.8266 19 12.8015 19 15.1652V15.3819C19 13.0155 20.6829 12.0406 22.7418 13.2136Z" fill="white"/>
</g>
<path d="M75.5527 14.9688V23.5H74.416L70.1211 16.9199V23.5H68.9902V14.9688H70.1211L74.4336 21.5664V14.9688H75.5527ZM77.7852 14.9688L80 19.252L82.2207 14.9688H83.5039L80.5625 20.3125V23.5H79.4316V20.3125L76.4902 14.9688H77.7852ZM91.1621 14.9688V23.5H90.0254L85.7305 16.9199V23.5H84.5996V14.9688H85.7305L90.043 21.5664V14.9688H91.1621ZM94.3789 14.9688V23.5H93.248V14.9688H94.3789ZM93.2129 14.3359L94.3496 12.6133H95.6562L94.0859 14.3359H93.2129ZM105.975 14.9688V23.5H104.838L100.543 16.9199V23.5H99.4121V14.9688H100.543L104.855 21.5664V14.9688H105.975ZM111.242 15.7246L108.418 23.5H107.264L110.516 14.9688H111.26L111.242 15.7246ZM113.609 23.5L110.779 15.7246L110.762 14.9688H111.506L114.77 23.5H113.609ZM113.463 20.3418V21.2676H108.67V20.3418H113.463Z" fill="white"/>
<g clip-path="url(#clip1_1_4888)">
<path d="M99.8209 36.0258C98.8337 36.0294 97.8697 36.3255 97.0506 36.8766C96.2316 37.4277 95.5942 38.2091 95.2189 39.1223C94.8436 40.0354 94.7474 41.0392 94.9422 42.007C95.137 42.9748 95.6142 43.8631 96.3136 44.5599C97.0129 45.2567 97.903 45.7306 98.8715 45.9219C99.84 46.1131 100.843 46.0131 101.755 45.6345C102.667 45.2559 103.446 44.6156 103.994 43.7945C104.542 42.9734 104.835 42.0084 104.835 41.0212C104.845 40.3609 104.721 39.7054 104.473 39.0937C104.224 38.482 103.855 37.9265 103.387 37.4605C102.919 36.9944 102.362 36.6272 101.75 36.3807C101.137 36.1342 100.481 36.0135 99.8209 36.0258ZM99.8209 44.0475C99.213 44.0909 98.606 43.9503 98.0791 43.6439C97.5522 43.3376 97.1298 42.8796 96.8668 42.3298C96.6039 41.78 96.5125 41.1637 96.6047 40.5612C96.6969 39.9588 96.9684 39.398 97.3838 38.952C97.7992 38.506 98.3393 38.1954 98.9337 38.0607C99.5281 37.9259 100.149 37.9733 100.716 38.1965C101.283 38.4198 101.77 38.8087 102.113 39.3125C102.456 39.8163 102.64 40.4117 102.639 41.0212C102.658 41.4061 102.599 41.7908 102.466 42.1526C102.334 42.5144 102.13 42.8461 101.868 43.1281C101.605 43.4101 101.289 43.6367 100.937 43.7946C100.586 43.9525 100.206 44.0385 99.8209 44.0475ZM88.8835 36.0258C87.8963 36.0294 86.9323 36.3255 86.1133 36.8766C85.2942 37.4277 84.6568 38.2091 84.2815 39.1223C83.9063 40.0354 83.81 41.0392 84.0048 42.007C84.1996 42.9748 84.6768 43.8631 85.3762 44.5599C86.0755 45.2567 86.9656 45.7306 87.9341 45.9219C88.9026 46.1131 89.9061 46.0131 90.8178 45.6345C91.7295 45.2559 92.5086 44.6156 93.0567 43.7945C93.6048 42.9734 93.8973 42.0084 93.8973 41.0212C93.907 40.3609 93.7839 39.7055 93.5351 39.0938C93.2863 38.4821 92.9171 37.9267 92.4493 37.4607C91.9815 36.9946 91.4248 36.6274 90.8122 36.3809C90.1996 36.1344 89.5437 36.0136 88.8835 36.0258ZM88.8835 44.0475C88.2756 44.0909 87.6686 43.9503 87.1418 43.6439C86.6149 43.3376 86.1924 42.8796 85.9294 42.3298C85.6665 41.78 85.5751 41.1637 85.6674 40.5612C85.7596 39.9588 86.031 39.398 86.4464 38.952C86.8618 38.506 87.4019 38.1954 87.9963 38.0607C88.5907 37.9259 89.2119 37.9733 89.779 38.1965C90.3461 38.4198 90.8328 38.8087 91.1758 39.3125C91.5188 39.8163 91.7022 40.4117 91.702 41.0212C91.7204 41.4061 91.6616 41.7908 91.5291 42.1526C91.3965 42.5144 91.1929 42.8461 90.9303 43.1281C90.6677 43.4101 90.3513 43.6367 89.9998 43.7946C89.6483 43.9525 89.2687 44.0385 88.8835 44.0475ZM75.8714 37.5574V39.6775H80.9419C80.8689 40.6712 80.4624 41.6112 79.7883 42.345C79.2801 42.863 78.6689 43.2687 77.9943 43.5359C77.3196 43.8031 76.5964 43.9259 75.8714 43.8964C74.3982 43.8634 72.9965 43.255 71.9663 42.2014C70.9361 41.1479 70.3593 39.7329 70.3593 38.2593C70.3593 36.7858 70.9361 35.3708 71.9663 34.3173C72.9965 33.2637 74.3982 32.6553 75.8714 32.6222C77.2951 32.6035 78.6686 33.1476 79.6933 34.1361L81.1887 32.6407C80.4892 31.9482 79.6585 31.4023 78.7453 31.0351C77.8321 30.6678 76.8548 30.4867 75.8707 30.5021C74.8431 30.4882 73.8229 30.6786 72.8695 31.0623C71.9161 31.4459 71.0484 32.0151 70.3168 32.7369C69.5852 33.4587 69.0043 34.3186 68.6078 35.2667C68.2113 36.2149 68.0071 37.2323 68.0071 38.2601C68.0071 39.2878 68.2113 40.3052 68.6078 41.2534C69.0043 42.2015 69.5852 43.0614 70.3168 43.7832C71.0484 44.505 71.9161 45.0742 72.8695 45.4578C73.8229 45.8415 74.8431 46.0319 75.8707 46.018C76.8753 46.0596 77.8773 45.8872 78.8102 45.512C79.7431 45.1368 80.5855 44.5675 81.2816 43.8418C82.5177 42.4928 83.1766 40.7135 83.1174 38.8847C83.1223 38.4396 83.0838 37.995 83.0025 37.5574H75.8714ZM129.084 39.2031C128.784 38.2984 128.212 37.5081 127.447 36.9395C126.682 36.3709 125.761 36.0517 124.808 36.0251C124.166 36.029 123.532 36.163 122.943 36.4191C122.354 36.6752 121.824 37.048 121.384 37.5149C120.943 37.9819 120.602 38.5333 120.381 39.1358C120.16 39.7384 120.063 40.3795 120.097 41.0205C120.082 41.6771 120.2 42.3299 120.444 42.9399C120.688 43.5499 121.052 44.1046 121.514 44.5708C121.977 45.037 122.529 45.4052 123.137 45.6533C123.745 45.9015 124.397 46.0245 125.054 46.0151C125.877 46.0197 126.688 45.8199 127.414 45.4335C128.141 45.0471 128.76 44.4863 129.216 43.8014L127.514 42.6669C127.259 43.0905 126.898 43.4405 126.467 43.6826C126.036 43.9248 125.55 44.0507 125.055 44.0482C124.546 44.0677 124.043 43.934 123.611 43.6643C123.179 43.3946 122.838 43.0015 122.632 42.5357L129.312 39.7704L129.084 39.2031ZM122.272 40.8687C122.249 40.5052 122.298 40.1407 122.417 39.7965C122.536 39.4523 122.723 39.1353 122.966 38.864C123.209 38.5927 123.504 38.3726 123.833 38.2166C124.162 38.0605 124.519 37.9716 124.883 37.9552C125.262 37.9299 125.64 38.017 125.97 38.2054C126.299 38.3938 126.566 38.6752 126.737 39.0145L122.272 40.8687ZM116.843 45.7117H119.037V31.0297H116.843V45.7117ZM113.246 37.1404H113.171C112.838 36.778 112.43 36.491 111.977 36.2985C111.523 36.106 111.034 36.0126 110.541 36.0244C109.254 36.0797 108.037 36.6301 107.146 37.5608C106.254 38.4915 105.756 39.7306 105.756 41.0194C105.756 42.3082 106.254 43.5473 107.146 44.478C108.037 45.4087 109.254 45.9591 110.541 46.0144C111.036 46.0278 111.527 45.9332 111.981 45.7373C112.436 45.5414 112.842 45.2488 113.171 44.8799H113.246V45.5996C113.246 47.5106 112.226 48.5323 110.579 48.5323C110.03 48.5191 109.498 48.3429 109.049 48.0261C108.601 47.7092 108.257 47.2662 108.062 46.7533L106.151 47.5481C106.511 48.425 107.125 49.1743 107.914 49.7001C108.702 50.2259 109.63 50.5042 110.578 50.4993C113.151 50.4993 115.329 48.9854 115.329 45.2961V36.3278H113.246V37.1404ZM110.731 44.0461C110.349 44.0352 109.974 43.9483 109.626 43.7905C109.279 43.6326 108.967 43.407 108.708 43.1268C108.449 42.8467 108.248 42.5176 108.118 42.159C107.988 41.8003 107.931 41.4193 107.95 41.0382C107.928 40.6545 107.983 40.2704 108.112 39.9083C108.241 39.5463 108.441 39.2135 108.7 38.9296C108.959 38.6457 109.272 38.4163 109.62 38.2548C109.969 38.0933 110.347 38.003 110.731 37.9892C112.226 37.9892 113.398 39.2761 113.398 41.0382C113.428 41.4125 113.382 41.7889 113.263 42.145C113.144 42.5011 112.954 42.8295 112.705 43.1104C112.456 43.3914 112.152 43.6192 111.813 43.7802C111.474 43.9413 111.106 44.0321 110.731 44.0475V44.0461ZM139.366 31.0339H134.114V45.7117H136.305V40.1504H139.365C139.984 40.1832 140.603 40.0895 141.185 39.8752C141.767 39.6608 142.299 39.3302 142.749 38.9036C143.199 38.4769 143.557 37.9631 143.802 37.3935C144.046 36.8239 144.173 36.2104 144.173 35.5904C144.173 34.9704 144.046 34.3569 143.802 33.7873C143.557 33.2177 143.199 32.7039 142.749 32.2772C142.299 31.8506 141.767 31.52 141.185 31.3056C140.603 31.0913 139.984 30.9976 139.365 31.0304L139.366 31.0339ZM139.422 38.1104H136.302V33.076H139.422C140.09 33.076 140.73 33.3413 141.202 33.8133C141.674 34.2854 141.94 34.9256 141.94 35.5932C141.94 36.2608 141.674 36.9011 141.202 37.3732C140.73 37.8452 140.09 38.1104 139.422 38.1104ZM152.966 36.0024C152.166 35.9557 151.37 36.1434 150.675 36.5426C149.98 36.9417 149.417 37.5349 149.054 38.2494L151.001 39.062C151.194 38.7072 151.486 38.4163 151.841 38.225C152.197 38.0337 152.601 37.9503 153.003 37.9849C154.138 37.9849 155.289 38.6649 155.308 39.8746V40.0249C154.604 39.6509 153.819 39.456 153.022 39.4577C150.926 39.4577 148.791 40.6099 148.791 42.7626C148.791 44.7275 150.51 45.9939 152.436 45.9939C152.988 46.0263 153.539 45.9102 154.03 45.6575C154.522 45.4048 154.937 45.0249 155.232 44.5573H155.308V45.6918H157.423V40.059C157.424 37.4531 155.479 35.9974 152.966 35.9974L152.966 36.0024ZM152.704 44.0453C151.985 44.0453 150.984 43.6873 150.984 42.7995C150.984 41.665 152.23 41.2318 153.307 41.2318C154.007 41.2132 154.698 41.3827 155.31 41.7224C155.229 42.3591 154.921 42.9451 154.442 43.3721C153.963 43.7991 153.346 44.0382 152.704 44.0453ZM165.133 36.3165L162.62 42.6818H162.545L159.936 36.3193H157.576L161.484 45.2153L159.255 50.1646H161.54L167.567 36.3186L165.133 36.3165ZM145.391 45.7117H147.582V31.0339H145.391V45.7117Z" fill="white"/>
</g>
<rect x="1" y="1" width="178" height="61" rx="9" stroke="#C6C6C6" stroke-width="2"/>
<defs>
<linearGradient id="paint0_linear_1_4888" x1="36.4137" y1="257.958" x2="7.19002" y2="250.217" gradientUnits="userSpaceOnUse">
<stop stop-color="#00A0FF"/>
<stop offset="0.007" stop-color="#00A1FF"/>
<stop offset="0.26" stop-color="#00BEFF"/>
<stop offset="0.512" stop-color="#00D2FF"/>
<stop offset="0.76" stop-color="#00DFFF"/>
<stop offset="1" stop-color="#00E3FF"/>
</linearGradient>
<linearGradient id="paint1_linear_1_4888" x1="54.1341" y1="241.283" x2="18.5065" y2="241.283" gradientUnits="userSpaceOnUse">
<stop stop-color="#FFE000"/>
<stop offset="0.409" stop-color="#FFBD00"/>
<stop offset="0.775" stop-color="#FFA500"/>
<stop offset="1" stop-color="#FF9C00"/>
</linearGradient>
<linearGradient id="paint2_linear_1_4888" x1="40.8612" y1="237.904" x2="17.3105" y2="198.354" gradientUnits="userSpaceOnUse">
<stop stop-color="#FF3A44"/>
<stop offset="1" stop-color="#C31162"/>
</linearGradient>
<linearGradient id="paint3_linear_1_4888" x1="15.0605" y1="270.556" x2="25.5837" y2="252.9" gradientUnits="userSpaceOnUse">
<stop stop-color="#32A071"/>
<stop offset="0.068" stop-color="#2DA771"/>
<stop offset="0.476" stop-color="#15CF74"/>
<stop offset="0.801" stop-color="#06E775"/>
<stop offset="1" stop-color="#00F076"/>
</linearGradient>
<clipPath id="clip0_1_4888">
<rect width="34" height="38" fill="white" transform="translate(19 12.5)"/>
</clipPath>
<clipPath id="clip1_1_4888">
<rect width="99.5675" height="20" fill="white" transform="translate(68 30.5)"/>
</clipPath>
</defs>
</svg>
