<svg xmlns="http://www.w3.org/2000/svg" xml:space="preserve" width="16mm" height="16mm" style="shape-rendering:geometricPrecision;text-rendering:geometricPrecision;image-rendering:optimizeQuality;fill-rule:evenodd;clip-rule:evenodd" viewBox="0 0 1600 1600"><path d="M294 574 85 829l-2 2c-17 19-15 49-13 68 8 101 10 208 15 310 1 10 1 17 3 20 1 1 5 2 12 4 47 9 96 17 143 27 10 1 19 3 24-3 14-19 36-48 57-76 12-17 23-31 28-38 10-13 24-55 56-149l3-10c20-60 87-222 95-240 2-8 0-17-5-26-6-9-16-18-31-24l-2-1c-2-1-5-1-8-2h-1c-2-1-5-1-8-1-8 0-16 2-23 7-7 4-13 10-17 17L285 923c-8 13-24 17-36 9-13-8-17-24-9-36l64-107c-3-37-6-72-7-105-2-36-3-70-3-104v-6zm57 137 13-22c9-16 22-29 37-38 8-5 17-9 27-11V338h-27c-11 0-21 4-29 10-8 7-13 16-15 27-3 36-6 71-8 105-1 33-2 66-2 100s1 68 2 101c1 10 1 20 2 30zm130-69c2 0 5 1 7 2l1 1c27 10 45 27 57 45 14 23 17 48 10 70l-1 2c0 1-11 26-25 61h540c-14-35-25-60-25-61l-1-2c-7-22-4-47 10-70 12-18 30-35 57-45l1-1 9-3V338H481v304zm28 234c-19 47-39 97-48 125l-3 10c-34 99-49 143-62 162-5 6-16 21-30 40-17 23-41 55-57 76-25 32-49 28-75 22-40-7-110-16-144-27-23-4-36-12-45-25s-11-27-13-46c0-95-8-215-15-310-2-28-5-72 27-107l252-309 1-10c1-34 4-70 8-109v-2c4-23 16-44 33-58s39-23 63-23c3 1 741 0 814 0 22 0 41 9 57 28 12 14 22 35 26 60l1 2c3 31 5 62 7 93 0 7 0 15 1 23l249 305c32 35 29 79 27 107-8 102-9 207-15 310-2 19-4 33-13 46s-22 21-45 25l-144 27c-26 6-50 10-75-22-16-21-40-53-57-76-14-19-25-34-30-40-13-19-28-63-62-162l-3-10c-9-28-29-78-48-125H509zm799-300c0 34-1 68-3 104-1 36-4 73-8 111l63 105c8 12 4 28-9 36-12 8-28 4-36-9l-126-209c-4-7-10-13-17-17-7-5-15-7-23-7-3 0-6 0-8 1h-1c-3 1-6 1-8 2l-2 1c-15 6-25 15-31 24-5 9-7 18-5 26 8 18 75 180 95 240l3 10c32 94 47 136 56 149 5 7 16 21 28 38 21 28 43 57 57 76 5 6 14 4 24 3l143-27c7-2 11-3 12-4 2-3 2-10 3-20 5-102 7-208 15-310 2-19 4-49-13-68l-2-2-207-253zm-57 138c0-12 1-24 2-36 1-36 2-72 2-109v-13c0-29-1-58-2-86-2-29-4-59-7-88-2-16-8-27-14-35-5-6-11-9-17-9h-41v303c9 2 18 6 25 10 15 9 28 22 37 38l15 25zM416 600c0 14-11 26-26 26s-26-12-26-26v-39c0-14 11-26 26-26s26 12 26 26v39z" style="fill:#1653a4;fill-rule:nonzero"/></svg>