<svg xmlns="http://www.w3.org/2000/svg" xml:space="preserve" width="16mm" height="16mm" style="shape-rendering:geometricPrecision;text-rendering:geometricPrecision;image-rendering:optimizeQuality;fill-rule:evenodd;clip-rule:evenodd" viewBox="0 0 1600 1600"><path d="M977 515zm481 506c-61-67-149-105-263-126-8-2-16-1-23 4l-171 127-152-159c-5-5-11-8-18-8-57-1-112-6-164-18-39-9-77-22-110-41l50-58c20 9 42 16 64 21 29 7 58 11 87 11 50 0 98-10 142-28 26 19 55 34 85 45 37 13 76 20 115 20 94 0 179-38 241-100s100-147 100-241-38-180-100-241c-62-62-147-100-241-100-15 0-30 1-45 3-10 1-20 3-29 5l-3-3C955 66 862 24 758 24c-103 0-197 42-265 110S383 296 383 399c0 28 4 57 10 85l1 2c5 22 12 43 21 63l-75 65c-3-1-5-2-7-2-14-5-29-7-44-7h-5c-55 5-92 47-139 101l-5 7c-23 26-44 51-60 76-18 28-30 55-31 83l1 1c0 13 2 25 7 36 4 12 11 23 19 32l2 3c10 9 20 17 30 25 12 8 23 16 35 22 21 13 42 22 65 29 23 6 47 10 71 10l16-1c5 0 10-1 15-2 48 40 100 75 155 105 52 29 108 53 165 72v372h53v-391c0-11-8-22-19-25-60-19-119-44-174-74-42-23-82-49-119-78 24-12 45-29 62-49l1-1c15-17 27-37 35-57v-1l53-60c40 25 85 42 134 53 51 12 106 17 163 18l160 168c10 10 25 11 35 3l180-134c99 19 174 53 224 109 53 58 80 142 80 263v256h52l1-256c0-135-32-231-93-299zM487 800c-3-43-17-83-43-113l-2-3c-10-11-21-21-33-30-6-5-12-10-19-14l75-64c9-8 11-21 6-32-11-22-20-46-26-70v-3c-6-23-9-47-9-72 0-89 36-169 95-228 58-58 138-94 227-94s170 36 228 94c58 59 94 139 94 228s-36 169-94 228c-58 58-139 94-228 94-25 0-51-3-75-9s-48-15-71-26c-11-6-25-3-33 7l-92 107zm-53 20c-1 36-14 74-40 104l-1 1c-13 15-28 27-46 36-17 9-36 14-56 15l-6 1h-6c-19 0-38-3-57-8-18-5-35-13-51-23l-3-1c-10-6-19-12-28-18-9-7-17-14-25-21-4-5-7-10-9-16-2-5-4-11-4-17 0-17 9-35 22-55 14-22 35-46 56-71l5-6c39-45 69-80 103-83h1c10 0 20 1 29 4s18 7 26 13l3 2c10 5 21 11 30 18 10 8 18 16 26 25 22 25 33 61 31 100zm466-74c-6-4-11-8-17-13l17 13zm54-28c25-15 48-33 69-54 68-68 110-162 110-265 0-80-25-154-68-215 11-2 23-2 35-2 80 0 152 32 204 84s84 124 84 204c0 79-32 151-84 204-52 52-124 84-204 84-34 0-67-6-97-17-17-6-33-13-49-23zm56-577c6-2 11-3 16-4l-16 4zM689 390l191-108 50 29v177L742 598l-165-94V325l189-110 61 36-171 97c-6 3-11 8-14 14-4 5-6 12-6 19v39c0 14 12 26 27 26 14 0 26-12 26-26v-30zm289-106zM762 648l201-118c6-4 11-9 15-15 3-6 5-12 5-19V304l-1-5c0-5-2-10-4-15-4-6-9-11-15-14L786 165c-3-1-6-3-9-4-4-1-7-1-11-1-3 0-6 0-10 1-3 1-6 3-9 4L544 283c-6 4-11 9-15 15-3 6-5 12-5 19v195c0 7 2 14 5 20 4 6 9 11 15 14l178 102c3 1 7 3 10 4s7 1 10 1 7 0 10-1c4-1 7-3 10-4z" style="fill:#1653a4"/></svg>