<svg width="173" height="173" viewBox="0 0 173 173" fill="none" xmlns="http://www.w3.org/2000/svg">
<path d="M0.266617 0.266724V8.47942V16.6921V24.9048V33.1175V41.3302V49.5429V57.7556H8.47932H16.692H24.9047H33.1174H41.3301H49.5428H57.7555V49.5429V41.3302V33.1175V24.9048V16.6921V8.47942V0.266724H49.5428H41.3301H33.1174H24.9047H16.692H8.47932H0.266617ZM65.9682 0.266724V8.47942V16.6921H74.1809V8.47942H82.3936V0.266724H74.1809H65.9682ZM82.3936 8.47942V16.6921H90.6063V8.47942H82.3936ZM90.6063 16.6921V24.9048H98.819H107.032V16.6921V8.47942V0.266724H98.819V8.47942V16.6921H90.6063ZM90.6063 24.9048H82.3936H74.1809H65.9682V33.1175H74.1809H82.3936V41.3302H74.1809V49.5429H82.3936V57.7556H90.6063V49.5429H98.819V57.7556H90.6063V65.9683H82.3936V74.181H90.6063H98.819V82.3937H107.032V74.181V65.9683V57.7556V49.5429V41.3302H98.819V33.1175H90.6063V24.9048ZM98.819 82.3937H90.6063V90.6064H82.3936V98.8191V107.032H90.6063V115.245V123.457H82.3936H74.1809V115.245H82.3936V107.032H74.1809V98.8191V90.6064H65.9682V82.3937H74.1809V90.6064H82.3936V82.3937V74.181H74.1809H65.9682V65.9683H57.7555H49.5428H41.3301V74.181H33.1174V82.3937H24.9047V74.181H33.1174V65.9683H24.9047H16.692V74.181H8.47932V82.3937V90.6064V98.8191H16.692V90.6064H24.9047H33.1174H41.3301V82.3937H49.5428V74.181H57.7555V82.3937H49.5428V90.6064H57.7555V98.8191H49.5428V107.032H57.7555H65.9682V115.245V123.457V131.67H74.1809V139.883H82.3936H90.6063H98.819V148.095H90.6063H82.3936H74.1809V139.883H65.9682V148.095V156.308H74.1809V164.521H65.9682V172.733H74.1809H82.3936V164.521H90.6063V172.733H98.819H107.032H115.244H123.457V164.521H131.67V172.733H139.882H148.095H156.308V164.521H148.095H139.882V156.308H131.67V148.095H123.457V156.308H115.244H107.032V164.521H98.819V156.308H107.032V148.095V139.883V131.67H115.244V123.457H107.032H98.819V115.245H107.032V107.032V98.8191V90.6064H98.819V82.3937ZM123.457 148.095V139.883H115.244V148.095H123.457ZM139.882 156.308H148.095H156.308V148.095H148.095H139.882V156.308ZM156.308 148.095H164.521V139.883V131.67V123.457V115.245H156.308H148.095H139.882V107.032H131.67V115.245H123.457V123.457V131.67H131.67V123.457H139.882V131.67V139.883H148.095H156.308V148.095ZM131.67 107.032V98.8191H123.457H115.244V107.032H123.457H131.67ZM139.882 107.032H148.095V98.8191V90.6064V82.3937H156.308V90.6064H164.521V98.8191H172.733V90.6064V82.3937H164.521V74.181H172.733V65.9683H164.521H156.308V74.181H148.095V65.9683H139.882V74.181H131.67V82.3937H139.882V90.6064V98.8191V107.032ZM131.67 82.3937H123.457V90.6064H131.67V82.3937ZM164.521 98.8191H156.308V107.032H164.521V98.8191ZM49.5428 98.8191V90.6064H41.3301V98.8191H49.5428ZM41.3301 98.8191H33.1174H24.9047H16.692V107.032H24.9047H33.1174H41.3301V98.8191ZM8.47932 98.8191H0.266617V107.032H8.47932V98.8191ZM8.47932 74.181V65.9683H0.266617V74.181H8.47932ZM65.9682 65.9683H74.1809V57.7556V49.5429H65.9682V57.7556V65.9683ZM115.244 0.266724V8.47942V16.6921V24.9048V33.1175V41.3302V49.5429V57.7556H123.457H131.67H139.882H148.095H156.308H164.521H172.733V49.5429V41.3302V33.1175V24.9048V16.6921V8.47942V0.266724H164.521H156.308H148.095H139.882H131.67H123.457H115.244ZM8.47932 8.47942H16.692H24.9047H33.1174H41.3301H49.5428V16.6921V24.9048V33.1175V41.3302V49.5429H41.3301H33.1174H24.9047H16.692H8.47932V41.3302V33.1175V24.9048V16.6921V8.47942ZM123.457 8.47942H131.67H139.882H148.095H156.308H164.521V16.6921V24.9048V33.1175V41.3302V49.5429H156.308H148.095H139.882H131.67H123.457V41.3302V33.1175V24.9048V16.6921V8.47942ZM16.692 16.6921V24.9048V33.1175V41.3302H24.9047H33.1174H41.3301V33.1175V24.9048V16.6921H33.1174H24.9047H16.692ZM131.67 16.6921V24.9048V33.1175V41.3302H139.882H148.095H156.308V33.1175V24.9048V16.6921H148.095H139.882H131.67ZM115.244 65.9683V74.181H123.457V65.9683H115.244ZM0.266617 115.245V123.457V131.67V139.883V148.095V156.308V164.521V172.733H8.47932H16.692H24.9047H33.1174H41.3301H49.5428H57.7555V164.521V156.308V148.095V139.883V131.67V123.457V115.245H49.5428H41.3301H33.1174H24.9047H16.692H8.47932H0.266617ZM8.47932 123.457H16.692H24.9047H33.1174H41.3301H49.5428V131.67V139.883V148.095V156.308V164.521H41.3301H33.1174H24.9047H16.692H8.47932V156.308V148.095V139.883V131.67V123.457ZM16.692 131.67V139.883V148.095V156.308H24.9047H33.1174H41.3301V148.095V139.883V131.67H33.1174H24.9047H16.692ZM164.521 156.308V164.521H172.733V156.308H164.521Z" fill="black"/>
</svg>
