<svg xmlns="http://www.w3.org/2000/svg" xml:space="preserve" width="16mm" height="16mm" style="shape-rendering:geometricPrecision;text-rendering:geometricPrecision;image-rendering:optimizeQuality;fill-rule:evenodd;clip-rule:evenodd" viewBox="0 0 1600 1600"><path d="M965 1076c-3-15 7-28 21-31 15-2 28 8 31 22l22 134c2 14-7 28-22 30-14 3-28-7-30-21l-22-134zM814 442l122 169 204 134 2 1c10 8 18 18 23 30 6 11 9 24 9 36 0 14-4 28-10 39l105 122h99c15 0 27 12 27 27 0 10-6 19-16 24l-39 235c-2 12-8 22-16 29s-19 11-31 11H968c-11 0-22-4-31-11l-1-2c-8-7-13-16-15-27l-39-235c-9-5-15-14-15-24 0-15 11-27 26-27h90l72-83c-17-7-45-18-76-32-52-21-113-47-141-58l-2-1c-8-3-16-8-23-14-6-5-12-12-17-19-5-6-16-20-27-34l-31 116 138 265c2 6 4 13 5 19 2 6 3 12 3 19 0 6-1 14-3 21s-4 13-7 19c-8 25-96 278-145 353l-1 1c-13 20-34 29-58 31-23 2-50-4-68-15-16-8-29-20-39-34-9-15-15-33-15-51 0-4 1-9 1-14l1-1c0-5 2-10 3-14l65-266-28-36-192 306c-6 12-39 64-121 32-82-33-65-105-65-105 1-2 1-3 2-5l205-461-1-1c-8-22-12-45-12-68 0-6 0-13 1-20s2-14 3-20l53-183-11 1-73 185-1 1c-7 16-18 29-32 38-14 10-31 15-48 15-5 0-10 0-15-1l-12-3c-19-4-35-13-46-27-13-14-20-32-20-52 0-3 0-7 1-10v-1c1-4 1-7 2-11l53-257c5-20 12-35 22-47 11-14 25-23 45-28 26-7 132-29 223-45 59-10 113-18 138-18h1c11 0 22 1 32 3 33 8 59 26 77 51 6 9 11 18 15 28zm313 447-3 1-71 83h146l-72-84zM785 672c14 18 43 55 49 62l3 3c2 4 5 7 8 10 4 3 8 5 11 7 33 13 92 37 142 58l83 35 3 1h4c8 0 16-3 22-8 1-2 3-4 5-5l2-2c4-6 7-13 7-21 0-5-2-10-4-15-2-4-5-8-9-12L904 650c-2-1-4-3-6-6l-78-107v2l-35 133zM452 967l-188 424c-1 7 0 29 33 43 44 17 54-6 54-6 1-2 1-3 2-5l203-323c-37-48-80-104-102-130v-1l-2-2zm233 548c48-74 140-343 140-343l1-4c2-3 3-6 4-8 0-3 1-6 1-9s-1-6-1-8c-1-3-1-5-2-7L687 864c-4-6-4-13-2-19l83-317c2-9 3-18 4-27 0-21-6-41-17-57-10-14-25-25-44-29-7-2-14-3-21-3-21 0-73 8-130 18-91 16-194 38-219 44-8 2-13 5-17 10-5 6-8 15-11 27l-53 256c-1 4-2 6-2 10 0 7 3 13 7 18 4 4 9 8 16 9 2 0 4 1 6 1 1 1 3 1 5 2h6c7 0 13-2 19-6 5-3 10-8 12-14l79-200c4-10 14-16 24-17l64-7c15-2 28 9 29 23 1 4 0 7-1 11l-62 217c-1 5-2 10-2 14-1 5-1 10-1 15 0 17 3 33 9 49 6 15 14 30 26 42l1 2c45 56 172 223 173 224 5 7 6 15 4 23l-69 280c0 2-1 4-1 6v1c-1 1-1 3-1 6 0 8 3 16 7 22 4 7 10 13 18 16l2 1c10 6 25 9 38 8 8 0 15-2 18-6l1-2zm348-1309v2c0 51-21 97-54 131l-2 1c-33 33-79 53-129 53-51 0-97-21-130-54-34-34-54-80-54-131v-2c0-51 21-96 55-129 33-33 79-53 129-53 51 0 96 20 130 53 33 33 54 78 55 129zm-53 2v-2c-1-36-16-68-39-92-24-23-57-38-93-38s-69 15-92 38c-24 24-39 56-40 92v2c0 36 15 69 39 93s57 39 93 39 68-14 92-37l1-2c24-24 39-57 39-93zm309 1038 37-220H936l37 220h316zm-171-42c0 15-11 27-25 28-15 0-27-11-28-25l-6-134c-1-15 10-27 25-28 14-1 27 11 27 25l7 134zm127-137c2-14 16-24 30-22 15 3 24 16 22 31l-23 134c-2 14-16 24-30 21-14-2-24-16-22-30l23-134zm-49 139c0 15-12 26-27 26-14-1-26-13-25-27l4-134c1-15 13-26 27-26 15 1 26 13 26 27l-5 134z" style="fill:#1653a4;fill-rule:nonzero"/></svg>