<svg width="132" height="36" viewBox="0 0 132 36" fill="none" xmlns="http://www.w3.org/2000/svg">
<path d="M15.2066 11.0931C15.2066 11.0931 15.5549 10.007 15.3687 9.46903C15.1744 8.21041 14.0935 8.22578 13.1987 8.7791C13.1987 8.7791 13.1987 8.7791 13.0165 8.60149C9.79368 10.4493 8.57872 14.6111 6.81324 17.8798C4.69547 21.8743 2.93802 25.8636 1.18057 29.853C-0.0504421 32.5735 2.15166 36.1461 5.38254 35.0189C11.8483 33.125 18.1359 31.4138 24.7879 30.0578C25.6867 29.8648 26.2211 29.3166 26.5734 28.5908L27.1119 28.403C27.6464 27.8548 27.6464 27.8548 28.1808 27.3066C28.1808 27.3066 28.1808 27.3066 28.5371 26.9411C28.8934 26.5757 28.8894 26.2153 28.7032 25.6774C28.6992 25.3171 28.6952 24.9567 28.509 24.4188C28.3269 24.2412 28.1407 23.7032 27.7763 23.348C27.5942 23.1704 27.412 22.9928 27.2298 22.8152C26.8655 22.46 26.5051 22.4651 26.1448 22.4702C25.9627 22.2926 25.4242 22.4805 25.0638 22.4856C25.0638 22.4856 24.5214 22.3131 24.3432 22.4958C23.9829 22.501 23.6225 22.5061 23.2662 22.8715C22.1813 22.5266 21.1003 22.542 20.0193 22.5573C25.2059 19.0598 30.7568 15.9175 36.676 13.4907C46.8991 9.2008 58.2272 7.05752 69.5794 7.07627C91.3851 7.30674 114.927 17.7838 129.889 34.5096C130.8 35.3976 132.047 34.1185 131.314 33.0478C115.959 13.4444 93.8431 1.50545 68.7865 0.600418C50.5801 -0.0416377 30.4621 5.65041 15.9995 17.569C16.1536 15.2242 16.1295 13.0622 15.2066 11.0931Z" fill="#1653A4"/>
</svg>
