<svg xmlns="http://www.w3.org/2000/svg" xml:space="preserve" width="16mm" height="16mm" style="shape-rendering:geometricPrecision;text-rendering:geometricPrecision;image-rendering:optimizeQuality;fill-rule:evenodd;clip-rule:evenodd" viewBox="0 0 1600 1600"><path d="M454 372c-2-7-5-13-8-19-17-28-45-46-72-55-27-10-52-11-66-7l-2 1 5 53c8 76 21 204-40 385-19 57-38 114-53 167-14 52-24 102-28 148-6 79 6 149 31 208 31 73 82 131 141 173 60 41 129 65 197 70 53 4 105-3 152-23l214-92h-58c-50 0-100-1-152-4-51-2-102-6-155-11h-2c-30-5-56-21-74-42-19-22-30-50-30-81V372zm308 364c0 15-12 27-26 27-15 0-27-12-27-27v-43c0-7 2-14 6-20 3-6 9-11 15-14l198-113-75-44-217 126v206l189 107 215-126V612l-60-35-218 124v35zm111-283 200 117c6 4 11 9 14 15 3 5 5 11 6 16v221c0 6-1 12-4 18l-1 2c-4 6-9 12-15 15L846 990c-4 2-7 3-10 4-4 1-8 2-11 2s-6-1-9-1l-1-1c-4 0-7-2-10-4L604 876c-6-3-12-9-15-15-4-6-6-13-6-20V621c0-7 2-14 6-20 3-7 8-12 15-15l228-133c2-2 4-3 7-4l3-1c3-1 7-1 11-1 3 0 7 0 10 1 4 2 7 3 10 5zm-365 650h651c7-6 15-12 24-15l2-1c-9-4-19-8-27-14-17-12-31-29-39-49-3-7-5-14-6-20-2-7-3-15-3-22 0-21 7-42 18-60 12-17 28-32 48-41l10-4c-10-3-19-8-28-13-17-12-31-29-39-50l-14-36h6v-5c0-22 6-43 18-61 11-17 28-32 47-40l20-10c0-121-1-243 0-365H503c0 17-1 34-1 52 1 3 3 6 4 10l-4 1c-4 244 5 498 6 743zm618 52H508c0 30-1 59-1 88 0 18 6 34 17 46 10 13 25 22 42 25 51 4 101 8 151 10 50 3 99 4 150 4h19c41 0 80-1 119-3 41-2 82-5 122-9 21-3 43-12 58-26 4-3 7-7 10-11-10-3-20-7-29-13-16-11-29-27-36-46-2-6-4-13-6-19-1-6-2-13-2-20 0-9 2-17 4-26zM505 244h691c0-19 0-38 1-56 0-18-7-34-17-46-11-13-25-22-42-25-51-5-100-8-147-11-46-2-92-3-139-3s-93 1-139 3c-48 3-96 6-147 11-17 3-32 12-42 25-11 12-17 28-17 45-1 19-2 38-2 57zm743 303 123-53c12-5 22-14 29-25 8-11 12-24 12-38 0-4-1-9-2-13-1-5-2-9-4-13v-2c-4-11-11-21-20-28-10-6-21-10-33-10-3 0-7 0-10 1-3 0-7 1-10 3h-2c-7 2-28 10-51 18-12 4-23 8-33 12 0 50 1 102 1 148zm-1-204 16-6c20-7 41-15 51-18 6-2 12-4 19-5s14-2 20-2c24 0 46 8 64 21 17 13 31 31 39 53 2 7 5 14 6 22 2 7 2 15 2 23 0 24-7 47-19 66-13 20-31 35-52 45l-144 62v36c2-1 4-1 6-2 7-1 14-2 21-2h1c22 0 43 7 60 19s31 28 39 49c3 7 5 13 6 20 2 7 3 15 3 22 0 21-7 42-18 60l-2 2 37 90 2 5c3 6 5 13 6 20s2 14 2 21c0 13-2 25-6 37v72l-16-42c-11 15-26 26-43 34l-14 6c9 3 16 7 23 12 16 11 29 26 37 45 2 7 4 13 5 19 2 7 2 13 2 20 0 20-6 39-16 56-11 16-26 29-44 38-27 9-58 24-87 37-5 20-17 38-33 52-23 20-55 33-85 38h-1c-20 2-40 4-60 5v1l-343 148c-54 23-115 32-176 27-77-6-155-33-223-80-67-47-124-113-159-195-29-67-42-145-36-233 4-49 15-102 31-158 15-56 34-113 53-170 58-170 45-291 38-363-6-53-9-86 20-103 3-2 8-4 13-6 23-8 62-6 100 7 21 8 43 19 62 35v-96c0-30 11-58 29-79 18-22 44-38 73-43h3c53-5 103-9 151-11 49-3 96-4 142-4s93 1 142 4c47 2 97 6 150 11h2c30 5 56 21 74 42 18 22 29 50 29 81-2 6-2 72-2 155zm-484 919c-15 0-26-12-26-26 0-15 11-27 26-27h178c14 0 26 12 26 27 0 14-12 26-26 26H763zm58-1059c-15 0-26-11-26-26s11-26 26-26h61c15 0 27 11 27 26s-12 26-27 26h-61zm534 719c-4-11-11-19-20-25s-19-9-30-9h-1c-4 0-8 0-10 1-4 0-7 1-10 2l-86 38c-11 5-19 13-25 22s-10 20-10 31c0 4 1 8 1 12 1 3 2 7 4 10v1c4 10 11 19 20 25 8 5 19 9 30 9h1c3 0 7 0 10-1l9-3 87-38c11-5 19-12 25-21s9-20 9-32c0-4 0-7-1-11 0-3-1-5-2-8l-1-3zm-21-83c6 2 13 4 19 7v-23c-6 6-12 11-19 16zm-91 386 75-33c9-4 16-10 21-18s8-17 8-27c0-3 0-7-1-10 0-3-1-6-2-9l-1-1c-3-8-9-16-16-21-8-5-17-8-26-8h-1c-4 0-7 1-9 1-3 1-5 1-8 2l-78 35c-9 4-17 10-22 18s-8 17-8 27c0 4 1 7 1 10 1 3 2 7 3 9v1c4 9 10 16 17 21 8 5 17 8 26 8h1c3 0 6 0 9-1 2 0 5-1 8-2l3-2zm-75-430c4 10 11 19 20 25s19 9 30 9h1c3 0 7 0 10-1 3 0 7-1 10-3l58-26c11-5 19-13 25-22s10-20 10-31c0-4-1-8-1-12-1-3-2-7-4-10v-1c-4-10-11-19-20-25-8-6-19-9-30-9h-1c-4 0-7 0-10 1s-6 2-10 3l-58 27c-11 4-19 12-25 21s-9 20-9 32c0 3 0 7 1 11s2 7 3 11z" style="fill:#1653a4;fill-rule:nonzero"/></svg>