<svg xmlns="http://www.w3.org/2000/svg" width="14" height="14" viewBox="0 0 14 14" fill="none">
<path d="M1.61419 4.41559C1.54623 4.48329 1.49231 4.56375 1.45552 4.65234C1.41872 4.74093 1.39978 4.83591 1.39978 4.93184C1.39978 5.02777 1.41872 5.12275 1.45552 5.21134C1.49231 5.29994 1.54623 5.38039 1.61419 5.44809L6.46169 10.2956C6.51566 10.3497 6.57976 10.3926 6.65033 10.4218C6.7209 10.4511 6.79655 10.4662 6.87294 10.4662C6.94934 10.4662 7.02499 10.4511 7.09556 10.4218C7.16613 10.3926 7.23023 10.3497 7.28419 10.2956L12.1317 5.44599C12.2673 5.3088 12.3431 5.12352 12.3426 4.93062C12.342 4.73772 12.2651 4.55288 12.1287 4.41647C11.9923 4.28007 11.8075 4.20319 11.6146 4.20263C11.4217 4.20208 11.2364 4.27788 11.0992 4.41349L6.86979 8.63659L2.64039 4.40929C2.50327 4.27445 2.31831 4.19941 2.12599 4.20059C1.93368 4.20177 1.74966 4.27908 1.61419 4.41559Z" fill="#1653A4"/>
</svg>
